<svg version="1.2" xmlns="http://www.w3.org/2000/svg" viewBox="0 0 800 800" width="800" height="800">
	<title>devices</title>
	<style>
		.s0 { fill: #ffffff } 
	</style>
	<path fill-rule="evenodd" class="s0" d="m383.8 37.5c10.1-5.6 22.3-5.6 32.4 0l300 166.7q0.3 0.2 0.7 0.4c10.2 6 16.4 16.9 16.4 28.7v333.4c0 12.1-6.5 23.2-17.1 29.1l-300 166.7c-10.2 5.7-22.7 5.6-32.8-0.3l-299.6-166.4c-10.6-5.9-17.1-17-17.1-29.1v-333.4c0-11.8 6.2-22.7 16.4-28.7h0.5l0.2-0.4zm247.6 195.8l-231.4-128.5-231.4 128.5 231.4 128.5zm-498 56.7v257.1l233.3 129.6v-257.1zm300 129.6v257.1l233.3-129.6v-257.1z"/>
</svg>