<svg version="1.2" xmlns="http://www.w3.org/2000/svg" viewBox="0 0 800 800" width="800" height="800">
	<title>logs</title>
	<style>
		.s0 { fill: #ffffff } 
	</style>
	<path fill-rule="evenodd" class="s0" d="m385.1 36.9c9.4-4.7 20.4-4.7 29.8 0l333.4 166.6c11.2 5.7 18.4 17.2 18.4 29.8 0 12.7-7.2 24.2-18.4 29.8l-333.4 166.7c-9.4 4.7-20.4 4.7-29.8 0l-333.3-166.7c-11.3-5.6-18.5-17.1-18.5-29.8 0-12.6 7.2-24.1 18.5-29.8zm-243.9 196.5l258.8 129.4 258.8-129.4-258.8-129.4z"/>
	<path class="s0" d="m36.9 551.8c8.2-16.5 28.2-23.2 44.7-14.9l318.4 159.2 318.4-159.2c16.5-8.3 36.5-1.6 44.8 14.9 8.2 16.4 1.5 36.4-15 44.7l-333.3 166.6c-9.4 4.7-20.4 4.7-29.8 0l-333.3-166.6c-16.5-8.3-23.2-28.3-14.9-44.7z"/>
	<path class="s0" d="m81.6 370.2c-16.5-8.2-36.5-1.6-44.7 14.9-8.3 16.5-1.6 36.5 14.9 44.7l333.3 166.7c9.4 4.7 20.4 4.7 29.8 0l333.3-166.7c16.5-8.2 23.2-28.2 15-44.7-8.3-16.5-28.3-23.1-44.8-14.9l-318.4 159.2z"/>
</svg>